<svg data-name="Layer 1" xmlns="http://www.w3.org/2000/svg" xmlns:xlink="http://www.w3.org/1999/xlink" width="869" height="634.74" viewBox="0 0 869 634.74"><defs><linearGradient id="a" x1="762.35" y1="767.37" x2="762.35" y2="290.82" gradientUnits="userSpaceOnUse"><stop offset=".01" stop-color="gray" stop-opacity=".25"/><stop offset=".54" stop-color="gray" stop-opacity=".12"/><stop offset="1" stop-color="gray" stop-opacity=".1"/></linearGradient><linearGradient id="b" x1="436.09" y1="608.57" x2="436.09" y2="132.63" xlink:href="#a"/></defs><path d="M998.41 290.82H566.95c-42.38 0-76.74 34.69-76.74 77.48v268.18a36.26 36.26 0 0 0 36.09 36.44h274c9.12 31.56 32 75.06 89.64 94.45l-16.27-94.45h124.74a36.26 36.26 0 0 0 36.09-36.44V327.26a36.26 36.26 0 0 0-36.09-36.44z" transform="translate(-165.5 -132.63)" fill="url(#a)"/><path d="M825.65 167.23h-418.8a74.49 74.49 0 0 0-74.49 74.49v257.82a35 35 0 0 0 35 35h265.97c8.85 30.34 31.09 72.16 87 90.8l-15.83-90.77h121.1a35 35 0 0 0 35-35V202.26a35 35 0 0 0-34.95-35.03z" fill="#fafafa"/><path fill="#e0e0e0" d="M500.77 234.16h216.47v27.06H500.77zm134.07 49.96h81.18v27.06h-81.18zm-80.14 49.95h160.08v27.06H554.7zm-37.46 49.96h196.32v27.06H517.24zm91.58 49.95h103.51v27.06H608.82z"/><path d="M201.38 132.63h469.41c19.82 0 35.88 16.29 35.88 36.39v308.83c0 20.1-16.06 36.39-35.88 36.39H398.38c-9.07 31.52-31.85 75-89.13 94.33l16.18-94.33h-124c-19.82 0-35.88-16.29-35.88-36.39V169c-.05-20.08 16.01-36.37 35.83-36.37z" transform="translate(-165.5 -132.63)" fill="url(#b)"/><path d="M41.27 9.47H499.5a35 35 0 0 1 35 35v297.31a35 35 0 0 1-35 35H233.59c-8.85 30.34-31.09 72.16-87 90.8l15.79-90.8H41.27a35 35 0 0 1-35-35V44.5a35 35 0 0 1 35-35.03z" fill="#fff"/><path fill="#6c63ff" d="M162.16 66.61h216.47v27.06H162.16zm1.23 49.95h81.18v27.06h-81.18zm1.23 49.95H324.7v27.06H164.62zm1.23 49.96h196.32v27.06H165.85zm1.23 49.95h103.51v27.06H167.08z"/></svg>